<?xml version="1.0" encoding="UTF-8"?>
<svg version="1.1" xmlns="http://www.w3.org/2000/svg" width="600" height="600">
<path d="M0 0 C198 0 396 0 600 0 C600 198 600 396 600 600 C402 600 204 600 0 600 C0 402 0 204 0 0 Z " fill="#FDFDFD" transform="translate(0,0)"/>
<path d="M0 0 C52.90178021 42.03447432 84.82056782 107.53639409 93.21484375 173.93359375 C94.13803232 182.57432472 94.31004475 191.1902063 94.3125 199.875 C94.31440338 200.59181946 94.31630676 201.30863892 94.31826782 202.04718018 C94.31046969 227.88275363 89.80524782 253.15780071 78.9375 276.6875 C78.61910156 277.37811523 78.30070312 278.06873047 77.97265625 278.78027344 C64.5738628 307.14846579 40.96149619 324.23948395 12.375 335.4609375 C8.92838087 336.69075387 5.4591734 337.69716275 1.9375 338.6875 C1.091875 339.05875 0.24625 339.43 -0.625 339.8125 C-3.54502424 340.86071383 -5.98350701 340.83070898 -9.0625 340.6875 C-9.3925 341.3475 -9.7225 342.0075 -10.0625 342.6875 C-8.928125 342.955625 -7.79375 343.22375 -6.625 343.5 C-5.449375 343.891875 -4.27375 344.28375 -3.0625 344.6875 C-2.7325 345.6775 -2.4025 346.6675 -2.0625 347.6875 C-1.4025 348.0175 -0.7425 348.3475 -0.0625 348.6875 C-0.3925 350.0075 -0.7225 351.3275 -1.0625 352.6875 C-1.96613281 352.06101562 -2.86976563 351.43453125 -3.80078125 350.7890625 C-4.9921779 349.96352781 -6.18358468 349.13800774 -7.375 348.3125 C-7.96990234 347.9 -8.56480469 347.4875 -9.17773438 347.0625 C-15.4811075 342.66577014 -15.4811075 342.66577014 -22.75 340.5625 C-23.74386719 340.39492188 -24.73773438 340.22734375 -25.76171875 340.0546875 C-26.52097656 339.93351562 -27.28023437 339.81234375 -28.0625 339.6875 C-27.4025 340.30625 -26.7425 340.925 -26.0625 341.5625 C-24.0625 343.6875 -24.0625 343.6875 -24.0625 345.6875 C-23.258125 345.97625 -22.45375 346.265 -21.625 346.5625 C-19.0625 347.6875 -19.0625 347.6875 -18.0625 349.6875 C-22.24846821 349.16425397 -25.43656931 347.59691217 -29.09765625 345.625 C-31.07405698 344.68198574 -32.92632253 344.14423282 -35.0625 343.6875 C-35.0625 343.0275 -35.0625 342.3675 -35.0625 341.6875 C-35.77792969 341.56503906 -36.49335938 341.44257813 -37.23046875 341.31640625 C-40.11362713 340.67614625 -42.64842473 339.75198444 -45.375 338.625 C-46.25800781 338.26277344 -47.14101563 337.90054687 -48.05078125 337.52734375 C-49.04658203 337.11162109 -49.04658203 337.11162109 -50.0625 336.6875 C-50.3925 337.3475 -50.7225 338.0075 -51.0625 338.6875 C-53.4375 339.5 -53.4375 339.5 -56.0625 339.6875 C-57.625 338.375 -57.625 338.375 -59.0625 336.6875 C-61.16239652 335.51175289 -61.16239652 335.51175289 -63.0625 334.6875 C-63.0625 334.0275 -63.0625 333.3675 -63.0625 332.6875 C-63.72636719 332.49414062 -64.39023437 332.30078125 -65.07421875 332.1015625 C-73.84457381 329.51526801 -73.84457381 329.51526801 -78.0625 327.6875 C-77.4025 327.0275 -76.7425 326.3675 -76.0625 325.6875 C-80.0225 324.2025 -80.0225 324.2025 -84.0625 322.6875 C-83.4025 322.3575 -82.7425 322.0275 -82.0625 321.6875 C-85.0530167 318.35192368 -87.99434627 316.53666079 -92.0625 314.6875 C-92.0625 314.0275 -92.0625 313.3675 -92.0625 312.6875 C-92.84625 312.56375 -93.63 312.44 -94.4375 312.3125 C-97.0625 311.6875 -97.0625 311.6875 -99.0625 309.6875 C-97.7425 309.3575 -96.4225 309.0275 -95.0625 308.6875 C-99.73054118 305.06738643 -103.3017897 302.98072068 -109.0625 301.6875 C-105.3125 300.5625 -105.3125 300.5625 -103.0625 301.6875 C-106.69329733 297.40292566 -110.41236657 293.29402271 -114.4375 289.375 C-119.39972282 284.45461717 -123.75604433 279.18480836 -128.0625 273.6875 C-128.50432617 273.13803711 -128.94615234 272.58857422 -129.40136719 272.02246094 C-144.78605538 252.8478078 -156.00125585 231.02272852 -166.0625 208.6875 C-166.54904053 207.60831299 -166.54904053 207.60831299 -167.04541016 206.50732422 C-168.90875146 202.29953738 -170.55956501 198.0350144 -172.0625 193.6875 C-172.33368652 192.90391113 -172.60487305 192.12032227 -172.88427734 191.31298828 C-190.04464595 140.65313549 -195.90564242 79.33916314 -172.09472656 29.76855469 C-160.44565698 6.28306056 -142.77530087 -12.6085206 -118.0625 -22.3125 C-75.00138377 -36.59552237 -35.48877863 -27.47628332 0 0 Z " fill="#FDFDFD" transform="translate(358.0625,141.3125)"/>
<path d="M0 0 C52.90178021 42.03447432 84.82056782 107.53639409 93.21484375 173.93359375 C94.13803232 182.57432472 94.31004475 191.1902063 94.3125 199.875 C94.31440338 200.59181946 94.31630676 201.30863892 94.31826782 202.04718018 C94.31046969 227.88275363 89.80524782 253.15780071 78.9375 276.6875 C78.61910156 277.37811523 78.30070312 278.06873047 77.97265625 278.78027344 C64.5738628 307.14846579 40.96149619 324.23948395 12.375 335.4609375 C8.92838087 336.69075387 5.4591734 337.69716275 1.9375 338.6875 C1.091875 339.05875 0.24625 339.43 -0.625 339.8125 C-3.54502424 340.86071383 -5.98350701 340.83070898 -9.0625 340.6875 C-9.3925 341.3475 -9.7225 342.0075 -10.0625 342.6875 C-8.928125 342.955625 -7.79375 343.22375 -6.625 343.5 C-5.449375 343.891875 -4.27375 344.28375 -3.0625 344.6875 C-2.7325 345.6775 -2.4025 346.6675 -2.0625 347.6875 C-1.4025 348.0175 -0.7425 348.3475 -0.0625 348.6875 C-0.3925 350.0075 -0.7225 351.3275 -1.0625 352.6875 C-1.96613281 352.06101562 -2.86976563 351.43453125 -3.80078125 350.7890625 C-4.9921779 349.96352781 -6.18358468 349.13800774 -7.375 348.3125 C-7.96990234 347.9 -8.56480469 347.4875 -9.17773438 347.0625 C-15.4811075 342.66577014 -15.4811075 342.66577014 -22.75 340.5625 C-23.74386719 340.39492188 -24.73773438 340.22734375 -25.76171875 340.0546875 C-26.52097656 339.93351562 -27.28023437 339.81234375 -28.0625 339.6875 C-27.4025 340.30625 -26.7425 340.925 -26.0625 341.5625 C-24.0625 343.6875 -24.0625 343.6875 -24.0625 345.6875 C-23.258125 345.97625 -22.45375 346.265 -21.625 346.5625 C-19.0625 347.6875 -19.0625 347.6875 -18.0625 349.6875 C-22.24846821 349.16425397 -25.43656931 347.59691217 -29.09765625 345.625 C-31.07405698 344.68198574 -32.92632253 344.14423282 -35.0625 343.6875 C-35.0625 343.0275 -35.0625 342.3675 -35.0625 341.6875 C-35.77792969 341.56503906 -36.49335938 341.44257813 -37.23046875 341.31640625 C-40.11362713 340.67614625 -42.64842473 339.75198444 -45.375 338.625 C-46.25800781 338.26277344 -47.14101563 337.90054687 -48.05078125 337.52734375 C-49.04658203 337.11162109 -49.04658203 337.11162109 -50.0625 336.6875 C-50.3925 337.3475 -50.7225 338.0075 -51.0625 338.6875 C-53.4375 339.5 -53.4375 339.5 -56.0625 339.6875 C-57.625 338.375 -57.625 338.375 -59.0625 336.6875 C-61.16239652 335.51175289 -61.16239652 335.51175289 -63.0625 334.6875 C-63.0625 334.0275 -63.0625 333.3675 -63.0625 332.6875 C-63.72636719 332.49414062 -64.39023437 332.30078125 -65.07421875 332.1015625 C-73.84457381 329.51526801 -73.84457381 329.51526801 -78.0625 327.6875 C-77.4025 327.0275 -76.7425 326.3675 -76.0625 325.6875 C-80.0225 324.2025 -80.0225 324.2025 -84.0625 322.6875 C-83.4025 322.3575 -82.7425 322.0275 -82.0625 321.6875 C-85.0530167 318.35192368 -87.99434627 316.53666079 -92.0625 314.6875 C-92.0625 314.0275 -92.0625 313.3675 -92.0625 312.6875 C-92.84625 312.56375 -93.63 312.44 -94.4375 312.3125 C-97.0625 311.6875 -97.0625 311.6875 -99.0625 309.6875 C-97.7425 309.3575 -96.4225 309.0275 -95.0625 308.6875 C-99.73054118 305.06738643 -103.3017897 302.98072068 -109.0625 301.6875 C-105.3125 300.5625 -105.3125 300.5625 -103.0625 301.6875 C-106.69329733 297.40292566 -110.41236657 293.29402271 -114.4375 289.375 C-119.39972282 284.45461717 -123.75604433 279.18480836 -128.0625 273.6875 C-128.50432617 273.13803711 -128.94615234 272.58857422 -129.40136719 272.02246094 C-144.78605538 252.8478078 -156.00125585 231.02272852 -166.0625 208.6875 C-166.54904053 207.60831299 -166.54904053 207.60831299 -167.04541016 206.50732422 C-168.90875146 202.29953738 -170.55956501 198.0350144 -172.0625 193.6875 C-172.33368652 192.90391113 -172.60487305 192.12032227 -172.88427734 191.31298828 C-190.04464595 140.65313549 -195.90564242 79.33916314 -172.09472656 29.76855469 C-160.44565698 6.28306056 -142.77530087 -12.6085206 -118.0625 -22.3125 C-75.00138377 -36.59552237 -35.48877863 -27.47628332 0 0 Z M-113.0625 16.6875 C-113.87267578 17.29029785 -113.87267578 17.29029785 -114.69921875 17.90527344 C-122.98313578 24.08977671 -129.31557818 31.0437558 -135.0625 39.6875 C-135.61421875 40.49703125 -136.1659375 41.3065625 -136.734375 42.140625 C-149.71267562 62.34395896 -153.47707928 87.57631604 -153.375 111.125 C-153.37251251 111.8195932 -153.37002502 112.5141864 -153.36746216 113.22982788 C-153.05443822 170.19286667 -129.70420547 224.93535597 -90.25 265.8125 C-68.19710408 287.30709476 -41.94247539 301.44585057 -10.85058594 301.15380859 C4.99611481 300.72065655 14.48343256 296.58188346 25.5625 284.92578125 C31.84446011 277.75323838 36.60980348 270.14882593 40.9375 261.6875 C41.40929687 260.7696875 41.88109375 259.851875 42.3671875 258.90625 C61.22663708 218.14172545 54.3308667 165.72225198 39.47802734 124.99194336 C29.21144142 98.35333862 15.41143488 73.75096599 -4.11328125 52.7890625 C-5.85777706 50.90822333 -7.49717568 48.98131969 -9.125 47 C-25.65111127 27.68201162 -52.78437454 12.20835788 -78.15649414 9.33740234 C-91.29576111 8.5337838 -102.38152555 8.26596245 -113.0625 16.6875 Z " fill="#44A1E2" transform="translate(358.0625,141.3125)"/>
<path d="M0 0 C2.078125 1.93359375 2.078125 1.93359375 4.25 4.4375 C5.04535156 5.35273438 5.84070313 6.26796875 6.66015625 7.2109375 C9.37686994 10.44922393 12.02966683 13.72906993 14.6484375 17.046875 C21.44857292 25.58657994 28.41778499 34.00324678 35.49755859 42.3125 C36.41043139 43.38943749 37.31584086 44.47274931 38.21337891 45.5625 C40.18423968 47.94621126 42.14042443 50.12457366 44.45703125 52.1796875 C48.92856864 56.45544829 50.18547999 59.84194567 50.48828125 65.95703125 C50.57962781 71.98278496 50.37343849 77.98620403 50 84 C36.55075958 91.2011681 22.49086093 96.88925864 8.37597656 102.62402344 C5.40928049 103.83318594 2.44882429 105.05555763 -0.5078125 106.2890625 C-1.29357666 106.61640381 -2.07934082 106.94374512 -2.88891602 107.28100586 C-4.28588172 107.86361101 -5.68225513 108.44763949 -7.07788086 109.03344727 C-10.02922125 110.25684766 -12.89278255 111.26990256 -16 112 C-16.11589162 107.72939382 -16.18714802 103.45919016 -16.25 99.1875 C-16.30027344 97.36508789 -16.30027344 97.36508789 -16.3515625 95.50585938 C-16.36445313 94.34248047 -16.37734375 93.17910156 -16.390625 91.98046875 C-16.41157227 90.90692139 -16.43251953 89.83337402 -16.45410156 88.72729492 C-16 86 -16 86 -14.26953125 84.24731445 C-11.97643955 82.98705138 -9.74948835 81.97428127 -7.296875 81.0625 C-6.39839844 80.72476563 -5.49992187 80.38703125 -4.57421875 80.0390625 C-3.64222656 79.69617188 -2.71023438 79.35328125 -1.75 79 C-0.83347656 78.65710938 0.08304687 78.31421875 1.02734375 77.9609375 C2.83246007 77.28627206 4.63907545 76.61560202 6.44726562 75.94921875 C8.08625332 75.33977115 9.72087092 74.71836298 11.34960938 74.08203125 C14.37890265 72.90135519 16.71723541 72 20 72 C20 71.34 20 70.68 20 70 C19.34 70 18.68 70 18 70 C16.64902626 68.48848454 15.37072655 66.91186687 14.125 65.3125 C10.57548699 60.86704882 6.89455994 56.64490238 3 52.5 C-1.61587357 47.57605923 -5.95264375 42.52312497 -10.16015625 37.2421875 C-11.83176327 35.03596179 -11.83176327 35.03596179 -13.59667969 33.76098633 C-15.71117022 31.10757293 -15.3384 28.92880024 -15.29296875 25.58203125 C-15.28330078 24.32841797 -15.27363281 23.07480469 -15.26367188 21.78320312 C-15.23853516 20.47287109 -15.21339844 19.16253906 -15.1875 17.8125 C-15.17244967 16.47722837 -15.15876187 15.14194063 -15.14648438 13.80664062 C-15.11107694 10.53735424 -15.0616889 7.26887907 -15 4 C-13.730447 3.35165346 -12.45930294 2.70642185 -11.1875 2.0625 C-10.47980469 1.70285156 -9.77210938 1.34320313 -9.04296875 0.97265625 C-5.60174502 -0.6657084 -3.57172246 -1.44345927 0 0 Z " fill="#4CACEF" transform="translate(345,256)"/>
<path d="M0 0 C-0.58820558 6.95282269 -1.57128333 13.74925124 -2.85546875 20.60546875 C-3.12852089 22.08932823 -3.12852089 22.08932823 -3.40708923 23.60316467 C-3.9963988 26.79872884 -4.59174258 29.9931322 -5.1875 33.1875 C-5.59964919 35.41304843 -6.01159429 37.63863467 -6.42333984 39.86425781 C-11.3670449 66.53147678 -11.3670449 66.53147678 -13.84179688 78.80493164 C-15.07750523 84.97295137 -16.19706494 91.1273655 -17.13983154 97.34619141 C-17.66401416 100.77178998 -18.22515089 104.19092433 -18.78875732 107.61022949 C-19.05146426 109.26705656 -19.29659539 110.92678059 -19.52276611 112.58898926 C-21.29623215 125.57236116 -21.29623215 125.57236116 -25.56689453 129.15087891 C-30.91201588 131.67803319 -35.23989782 132.85146142 -41 131 C-44.72445403 129.44434369 -48.37578897 127.77606001 -52 126 C-51.26753906 118.51516474 -50.05578482 111.16218895 -48.75 103.7578125 C-48.41231421 101.82191855 -48.07463416 99.88602359 -47.73730469 97.95006752 C-47.38875014 95.95116204 -47.03911599 93.95244721 -46.68945312 91.95373535 C-45.61130558 85.78163345 -44.55715782 79.60541168 -43.5 73.4296875 C-43.08349748 71.00387806 -42.66683043 68.57809687 -42.25 66.15234375 C-41.62407607 62.50975989 -40.99864683 58.86709556 -40.375 55.22412109 C-38.07430993 41.78845056 -35.73963432 28.35877372 -33.3125 14.9453125 C-33.11011719 13.80254852 -32.90773438 12.65978455 -32.69921875 11.48239136 C-32.50585938 10.42617584 -32.3125 9.36996033 -32.11328125 8.28173828 C-31.94610596 7.35531525 -31.77893066 6.42889221 -31.60668945 5.47439575 C-30.7394866 1.93749058 -30.03055236 -0.37262535 -26.86328125 -2.30078125 C-16.7882953 -6.29683234 -9.90031558 -3.4951853 0 0 Z " fill="#4AABEF" transform="translate(328,233)"/>
<path d="M0 0 C0 8.91 0 17.82 0 27 C-4.021875 28.77375 -8.04375 30.5475 -12.1875 32.375 C-13.44715576 32.93106934 -14.70681152 33.48713867 -16.00463867 34.06005859 C-17.50861206 34.72255615 -17.50861206 34.72255615 -19.04296875 35.3984375 C-20.06414795 35.84880371 -21.08532715 36.29916992 -22.13745117 36.76318359 C-24.74201901 37.88853461 -27.35999769 38.96096295 -30 40 C-27.59909909 44.36082001 -24.64027628 47.90801175 -21.375 51.625 C-20.29587106 52.86761844 -19.21775627 54.11111828 -18.140625 55.35546875 C-17.60888672 55.9695459 -17.07714844 56.58362305 -16.52929688 57.21630859 C-13.66429765 60.55789294 -10.8995763 63.97915168 -8.1328125 67.40234375 C-6.19963306 69.90107354 -6.19963306 69.90107354 -4.42236328 71.3815918 C-0.39616908 75.18173531 0.41689936 78.05596731 0.5859375 83.58984375 C0.54631636 86.0397512 0.47513534 88.4893192 0.375 90.9375 C0.33439453 92.82178711 0.33439453 92.82178711 0.29296875 94.74414062 C0.22254137 97.83120748 0.12408646 100.91470152 0 104 C-1.57967807 104.67528223 -3.16391903 105.33989694 -4.75 106 C-5.63171875 106.37125 -6.5134375 106.7425 -7.421875 107.125 C-10 108 -10 108 -14 108 C-15.73958745 106.13528433 -17.15885005 104.37613231 -18.625 102.3125 C-19.51792861 101.10394455 -20.41116585 99.89561707 -21.3046875 98.6875 C-21.75553711 98.06875 -22.20638672 97.45 -22.67089844 96.8125 C-24.65207069 94.11076913 -26.70116752 91.46313476 -28.75 88.8125 C-29.57682443 87.73698033 -30.40364729 86.66145945 -31.23046875 85.5859375 C-33.88497025 82.14241843 -36.55709354 78.71280283 -39.23486328 75.28735352 C-40.45319738 73.72090071 -41.66383964 72.14843499 -42.86669922 70.57006836 C-45.41493378 67.23557164 -47.91791251 63.99143375 -50.89453125 61.02734375 C-58.08831983 53.33508793 -57.76890874 45.97853 -57.46044922 35.92333984 C-57.33739096 33.27904719 -57.18736631 30.64042375 -57 28 C-56.26587891 27.59273682 -55.53175781 27.18547363 -54.77539062 26.76586914 C-51.97468467 25.21184562 -49.17432753 23.65719502 -46.37402344 22.10244751 C-44.50239841 21.06383095 -42.6301426 20.02635853 -40.7578125 18.98901367 C-35.49686843 16.07189755 -30.23721034 13.15530102 -25.03125 10.140625 C-7.50653609 0 -7.50653609 0 0 0 Z " fill="#47A9ED" transform="translate(272,230)"/>
<path d="M0 0 C-0.65699889 6.575001 -1.6458453 13.01351718 -2.85546875 19.5078125 C-3.12852089 20.9937944 -3.12852089 20.9937944 -3.40708923 22.50979614 C-3.99723127 25.71548858 -4.59216837 28.92026762 -5.1875 32.125 C-5.59955857 34.35512255 -6.0115044 36.58526593 -6.42333984 38.81542969 C-11.36154464 65.50479903 -11.36154464 65.50479903 -13.84179688 77.8046875 C-15.07743939 83.97279944 -16.19705314 90.12728769 -17.13983154 96.34619141 C-17.66401416 99.77178998 -18.22515089 103.19092433 -18.78875732 106.61022949 C-19.05146426 108.26705656 -19.29659539 109.92678059 -19.52276611 111.58898926 C-21.30021495 124.60151888 -21.30021495 124.60151888 -25.61962891 128.15527344 C-29.0453605 129.75666746 -32.18664269 131 -36 131 C-36.32008455 123.80304732 -35.09679734 117.16804371 -33.7265625 110.1171875 C-33.35952536 108.17816663 -32.99248831 106.23914574 -32.6254549 104.30012417 C-32.09988542 101.53429292 -31.56739829 98.76981067 -31.03490067 96.00530624 C-29.92795124 90.25234833 -28.83232613 84.49721249 -27.73571205 78.74227715 C-27.45540276 77.27202186 -27.17473955 75.801834 -26.89372826 74.33171272 C-24.8922484 63.85669323 -22.98584796 53.36892485 -21.15234375 42.86328125 C-20.49701795 39.15357978 -19.84037815 35.44411283 -19.18353271 31.73468018 C-18.77053471 29.37574113 -18.36493548 27.0154944 -17.96685791 24.6539917 C-17.41488188 21.38415707 -16.83724016 18.11983099 -16.25390625 14.85546875 C-16.09905258 13.89288651 -15.94419891 12.93030426 -15.78465271 11.93855286 C-14.5982125 5.49943607 -14.5982125 5.49943607 -11.55444336 2.95825195 C-10.71147705 2.64202881 -9.86851074 2.32580566 -9 2 C-7.453125 1.4121875 -7.453125 1.4121875 -5.875 0.8125 C-3 0 -3 0 0 0 Z " fill="#2C6BA0" transform="translate(328,234)"/>
<path d="M0 0 C2.078125 1.93359375 2.078125 1.93359375 4.25 4.4375 C5.04535156 5.35273438 5.84070313 6.26796875 6.66015625 7.2109375 C9.37686994 10.44922393 12.02966683 13.72906993 14.6484375 17.046875 C21.44857292 25.58657994 28.41778499 34.00324678 35.49755859 42.3125 C36.41043139 43.38943749 37.31584086 44.47274931 38.21337891 45.5625 C40.18423968 47.94621126 42.14042443 50.12457366 44.45703125 52.1796875 C48.92856864 56.45544829 50.18547999 59.84194567 50.48828125 65.95703125 C50.57962781 71.98278496 50.37343849 77.98620403 50 84 C48.04414675 85.00484204 46.08523763 86.00373805 44.125 87 C43.03445313 87.556875 41.94390625 88.11375 40.8203125 88.6875 C38 90 38 90 36 90 C36.02731201 89.34628418 36.05462402 88.69256836 36.08276367 88.01904297 C36.70966226 70.97787911 36.70966226 70.97787911 28.63549805 56.67529297 C27.61651504 55.61689998 26.58330334 54.57201639 25.53613281 53.54150391 C23.01416442 51.01071744 20.78058023 48.24673527 18.5 45.5 C17.58255697 44.42533222 16.66458692 43.35111414 15.74609375 42.27734375 C12.92501338 38.94352176 10.2385969 35.51306712 7.5625 32.0625 C2.77401184 25.8920353 -2.25081489 19.95517577 -7.37109375 14.05859375 C-8.2477495 13.03936659 -9.12407166 12.01985237 -10 11 C-10.77472656 10.10410156 -11.54945313 9.20820313 -12.34765625 8.28515625 C-14 6 -14 6 -14 3 C-12.42274653 2.29866401 -10.83788667 1.614417 -9.25 0.9375 C-7.92742187 0.36322266 -7.92742187 0.36322266 -6.578125 -0.22265625 C-3.72541424 -1.08279177 -2.68264415 -1.24396805 0 0 Z " fill="#4995D3" transform="translate(345,256)"/>
<path d="M0 0 C-0.66 0.66 -1.32 1.32 -2 2 C2.308644 7.30867496 6.63276692 12.60170708 11.06201172 17.81030273 C11.98888309 18.90678794 12.90705001 20.01068344 13.81689453 21.12133789 C16.07049641 23.85161745 18.23644131 26.2057798 20.921875 28.54296875 C26.53455183 33.78305262 28.20639111 37.14010773 28.62109375 44.7578125 C28.72643797 51.52028886 28.46785368 58.25426975 28 65 C26.39850114 65.67305018 24.79368971 66.33822227 23.1875 67 C21.84751953 67.556875 21.84751953 67.556875 20.48046875 68.125 C18 69 18 69 15 69 C15.04302246 68.33170166 15.08604492 67.66340332 15.13037109 66.97485352 C15.74242451 54.79958618 16.13740262 44.26100906 7.625 34.8125 C5.73783315 32.80255712 3.8195071 30.83868362 1.85693359 28.90234375 C-1.05778401 25.91634854 -3.54407581 22.6328039 -6.0625 19.3125 C-8.5802622 16.06027195 -11.12383588 12.84682335 -13.80859375 9.73046875 C-16 7 -16 7 -16 5 C-13.90163996 3.96728358 -11.79609109 2.94916283 -9.6875 1.9375 C-8.51574219 1.36902344 -7.34398437 0.80054688 -6.13671875 0.21484375 C-3 -1 -3 -1 0 0 Z " fill="#4992CF" transform="translate(244,269)"/>
<path d="M0 0 C3.5042886 1.56382973 6.24860574 3.68569756 9.25 6.0625 C23.90900327 17.32857731 41.09122818 25.58303834 59 30 C59.61351318 30.18095215 60.22702637 30.3619043 60.85913086 30.54833984 C68.48026919 32.59618752 76.24198847 32.21962096 84.0625 32.125 C85.51496778 32.11494832 86.9674423 32.10582635 88.41992188 32.09765625 C91.94675682 32.07582017 95.4733342 32.04141149 99 32 C98.505 32.99 98.505 32.99 98 34 C96.00390625 34.34375 96.00390625 34.34375 93.5625 34.5 C89.83440381 34.65121611 89.83440381 34.65121611 87 37 C88.134375 37.268125 89.26875 37.53625 90.4375 37.8125 C91.613125 38.204375 92.78875 38.59625 94 39 C94.33 39.99 94.66 40.98 95 42 C95.66 42.33 96.32 42.66 97 43 C96.67 44.32 96.34 45.64 96 47 C95.09636719 46.37351562 94.19273437 45.74703125 93.26171875 45.1015625 C92.0703221 44.27602781 90.87891532 43.45050774 89.6875 42.625 C89.09259766 42.2125 88.49769531 41.8 87.88476562 41.375 C81.5813925 36.97827014 81.5813925 36.97827014 74.3125 34.875 C73.31863281 34.70742188 72.32476562 34.53984375 71.30078125 34.3671875 C70.54152344 34.24601562 69.78226562 34.12484375 69 34 C69.99 34.928125 69.99 34.928125 71 35.875 C73 38 73 38 73 40 C73.804375 40.28875 74.60875 40.5775 75.4375 40.875 C78 42 78 42 79 44 C74.81403179 43.47675397 71.62593069 41.90941217 67.96484375 39.9375 C65.98844302 38.99448574 64.13617747 38.45673282 62 38 C62 37.34 62 36.68 62 36 C60.92685547 35.81630859 60.92685547 35.81630859 59.83203125 35.62890625 C56.94887287 34.98864625 54.41407527 34.06448444 51.6875 32.9375 C50.36298828 32.39416016 50.36298828 32.39416016 49.01171875 31.83984375 C48.34785156 31.56269531 47.68398438 31.28554688 47 31 C46.67 31.66 46.34 32.32 46 33 C43.625 33.8125 43.625 33.8125 41 34 C39.4375 32.6875 39.4375 32.6875 38 31 C35.90010348 29.82425289 35.90010348 29.82425289 34 29 C34 28.34 34 27.68 34 27 C33.33613281 26.80664062 32.67226563 26.61328125 31.98828125 26.4140625 C23.21792619 23.82776801 23.21792619 23.82776801 19 22 C19.66 21.34 20.32 20.68 21 20 C18.36 19.01 15.72 18.02 13 17 C13.66 16.67 14.32 16.34 15 16 C12.0094833 12.66442368 9.06815373 10.84916079 5 9 C5 8.34 5 7.68 5 7 C4.21625 6.87625 3.4325 6.7525 2.625 6.625 C0 6 0 6 -2 4 C-0.68 3.67 0.64 3.34 2 3 C1.34 2.01 0.68 1.02 0 0 Z " fill="#B4B4B4" transform="translate(261,447)"/>
<path d="M0 0 C0 8.91 0 17.82 0 27 C-4.09916654 28.86597166 -8.20363463 30.71811593 -12.3125 32.5625 C-14.06336914 33.36204102 -14.06336914 33.36204102 -15.84960938 34.17773438 C-17.52700195 34.92700195 -17.52700195 34.92700195 -19.23828125 35.69140625 C-20.26993408 36.15748291 -21.30158691 36.62355957 -22.36450195 37.10375977 C-25 38 -25 38 -28 37 C-23.71 35.02 -19.42 33.04 -15 31 C-14.67 22.09 -14.34 13.18 -14 4 C-3 0 -3 0 0 0 Z " fill="#2771A7" transform="translate(272,230)"/>
<path d="M0 0 C0 8.58 0 17.16 0 26 C-10 30 -10 30 -13 30 C-13 21.75 -13 13.5 -13 5 C-2 0 -2 0 0 0 Z " fill="#1D66A0" transform="translate(272,308)"/>
<path d="M0 0 C0 7.92 0 15.84 0 24 C-10.75 29 -10.75 29 -13 29 C-13 20.75 -13 12.5 -13 4 C-1.125 0 -1.125 0 0 0 Z " fill="#20649C" transform="translate(394,317)"/>
<path d="M0 0 C1.19625 0.268125 2.3925 0.53625 3.625 0.8125 C4.87216797 1.08320313 4.87216797 1.08320313 6.14453125 1.359375 C8.10687212 1.79962658 10.06259443 2.27012777 12.01171875 2.765625 C21.29248668 5.00618909 29.88176214 5.365163 39.375 5.1875 C40.80467311 5.17239782 42.23436198 5.15871937 43.6640625 5.14648438 C47.10971198 5.11398113 50.55474849 5.06251852 54 5 C53.67 5.66 53.34 6.32 53 7 C51.00390625 7.34375 51.00390625 7.34375 48.5625 7.5 C44.83440381 7.65121611 44.83440381 7.65121611 42 10 C43.134375 10.268125 44.26875 10.53625 45.4375 10.8125 C46.613125 11.204375 47.78875 11.59625 49 12 C49.495 13.485 49.495 13.485 50 15 C50.66 15.33 51.32 15.66 52 16 C51.67 17.32 51.34 18.64 51 20 C49.64455078 19.06027344 49.64455078 19.06027344 48.26171875 18.1015625 C47.0703221 17.27602781 45.87891532 16.45050774 44.6875 15.625 C44.09259766 15.2125 43.49769531 14.8 42.88476562 14.375 C36.5813925 9.97827014 36.5813925 9.97827014 29.3125 7.875 C28.31863281 7.70742188 27.32476562 7.53984375 26.30078125 7.3671875 C25.54152344 7.24601562 24.78226562 7.12484375 24 7 C24.66 7.61875 25.32 8.2375 26 8.875 C28 11 28 11 28 13 C29.2065625 13.433125 29.2065625 13.433125 30.4375 13.875 C33 15 33 15 34 17 C29.81403179 16.47675397 26.62593069 14.90941217 22.96484375 12.9375 C20.98844302 11.99448574 19.13617747 11.45673282 17 11 C17 10.34 17 9.68 17 9 C16.236875 8.896875 15.47375 8.79375 14.6875 8.6875 C12 8 12 8 10.625 6.59375 C8.6761597 4.6823874 6.82100567 3.86679948 4.3125 2.8125 C3.50425781 2.46832031 2.69601562 2.12414062 1.86328125 1.76953125 C1.24839844 1.51558594 0.63351562 1.26164062 0 1 C0 0.67 0 0.34 0 0 Z " fill="#747A7E" transform="translate(306,474)"/>
<path d="M0 0 C-4.76224902 3.17483268 -10.00790549 6.6251492 -15.97998047 5.68994141 C-20.46917376 4.51201589 -24.73619627 2.81830227 -29 1 C-29 0.34 -29 -0.32 -29 -1 C-17.90756479 -6.20027646 -11.24836664 -3.97109824 0 0 Z " fill="#52A0DF" transform="translate(328,233)"/>
<path d="M0 0 C0 6.27 0 12.54 0 19 C-3.03281652 15.96718348 -5.97580906 13.0076399 -8.8125 9.8125 C-9.41707031 9.13832031 -10.02164063 8.46414063 -10.64453125 7.76953125 C-12 6 -12 6 -12 4 C-10.56570999 3.32645501 -9.12742943 2.66140299 -7.6875 2 C-6.88699219 1.62875 -6.08648437 1.2575 -5.26171875 0.875 C-3 0 -3 0 0 0 Z " fill="#0A5993" transform="translate(240,270)"/>
<path d="M0 0 C4.0325295 0.67584293 7.62181947 1.91930685 11.4375 3.375 C28.12264364 9.38374171 46.20238979 12.271641 62.96484375 4.65234375 C64.63604967 3.77134093 66.28969676 2.85526541 67.9140625 1.890625 C70.403625 0.82766573 71.50585822 1.07457183 74 2 C57.55698386 11.15476034 39.0368252 13.848178 20.51953125 9.765625 C13.3924157 7.59986586 6.579956 4.47275456 0 1 C0 0.67 0 0.34 0 0 Z " fill="#3EA5EB" transform="translate(294,439)"/>
<path d="M0 0 C-0.33 0.66 -0.66 1.32 -1 2 C-2.99609375 2.34375 -2.99609375 2.34375 -5.4375 2.5 C-9.16559619 2.65121611 -9.16559619 2.65121611 -12 5 C-10.865625 5.268125 -9.73125 5.53625 -8.5625 5.8125 C-7.386875 6.204375 -6.21125 6.59625 -5 7 C-4.67 7.99 -4.34 8.98 -4 10 C-3.34 10.33 -2.68 10.66 -2 11 C-2.33 12.32 -2.66 13.64 -3 15 C-4.30324219 14.09507812 -4.30324219 14.09507812 -5.6328125 13.171875 C-6.79685533 12.36455497 -7.96091894 11.55726491 -9.125 10.75 C-9.69476563 10.35425781 -10.26453125 9.95851563 -10.8515625 9.55078125 C-11.41875 9.15761719 -11.9859375 8.76445312 -12.5703125 8.359375 C-13.41964355 7.7705957 -13.41964355 7.7705957 -14.28613281 7.16992188 C-15.98525584 6.01006468 -17.70501881 4.88701452 -19.4296875 3.765625 C-20.27789062 3.18296875 -21.12609375 2.6003125 -22 2 C-22 1.67 -22 1.34 -22 1 C-19.27093526 0.83150207 -16.54176829 0.6651397 -13.8125 0.5 C-13.04357422 0.45230469 -12.27464844 0.40460938 -11.48242188 0.35546875 C-7.648496 0.12510411 -3.84309823 -0.0616128 0 0 Z " fill="#A9B2B9" transform="translate(360,479)"/>
<path d="M0 0 C3.04483802 1.52241901 3.55835239 3.95036084 5 7 C7.16505296 11.53398983 9.49412069 15.81623931 12.1875 20.0625 C14.7106347 24.17451045 15.79124329 27.19859562 16 32 C12.73045452 29.03934285 10.8825808 26.21486751 8.984375 22.24609375 C8.45585937 21.14458984 7.92734375 20.04308594 7.3828125 18.90820312 C6.84398437 17.76287109 6.30515625 16.61753906 5.75 15.4375 C5.19570312 14.28830078 4.64140625 13.13910156 4.0703125 11.95507812 C0 3.39839901 0 3.39839901 0 0 Z " fill="#3687C2" transform="translate(209,340)"/>
<path d="M0 0 C0.66 0 1.32 0 2 0 C-2.22154623 9.4204948 -12.40533752 15.86026388 -21 21 C-24.3984375 22.2578125 -24.3984375 22.2578125 -27 23 C-23.59038479 19.38981919 -20.14698921 16.70823785 -16 14 C-14.92796904 13.09449812 -13.86533779 12.17774815 -12.8125 11.25 C-10 9 -10 9 -7 9 C-6.34 7.68 -5.68 6.36 -5 5 C-4.34 5 -3.68 5 -3 5 C-2.67 4.01 -2.34 3.02 -2 2 C-1.34 2 -0.68 2 0 2 C0 1.34 0 0.68 0 0 Z " fill="#7292B2" transform="translate(418,443)"/>
<path d="M0 0 C3.65016975 1.62519463 6.59310515 3.87940099 9.75 6.3125 C14.35232797 9.82640142 19.02548721 13.03442507 24 16 C23.34 16.33 22.68 16.66 22 17 C20.37233363 16.08443766 18.74892584 15.16015691 17.15234375 14.19140625 C13.28287941 12.04950675 9.12996715 10.56224109 5 9 C5 8.34 5 7.68 5 7 C4.21625 6.87625 3.4325 6.7525 2.625 6.625 C0 6 0 6 -2 4 C-0.68 3.67 0.64 3.34 2 3 C1.34 2.01 0.68 1.02 0 0 Z " fill="#989C9E" transform="translate(261,447)"/>
<path d="M0 0 C1.72108867 1.56462606 2.91783125 2.83018459 3.9375 4.9375 C4.95595038 7.17183319 4.95595038 7.17183319 7.125 9.125 C9 11 9 11 9 13 C9.66 13.33 10.32 13.66 11 14 C11.9583369 16.34937742 12.81785446 18.66218055 13.625 21.0625 C13.85445313 21.72572266 14.08390625 22.38894531 14.3203125 23.07226562 C14.88675776 24.71259669 15.44422923 26.35602157 16 28 C15.34 28.66 14.68 29.32 14 30 C13.71801758 29.40050537 13.43603516 28.80101074 13.14550781 28.18334961 C11.84994805 25.43333568 10.55000938 22.68541309 9.25 19.9375 C8.8065625 18.99455078 8.363125 18.05160156 7.90625 17.08007812 C5.95005803 12.95193773 3.98841178 8.88094874 1.671875 4.94140625 C0 2 0 2 0 0 Z " fill="#2F90CE" transform="translate(402,214)"/>
<path d="M0 0 C3.72433382 1.2125738 7.37802806 2.50859979 11 4 C11 4.66 11 5.32 11 6 C11.61488281 6.18175781 12.22976563 6.36351562 12.86328125 6.55078125 C13.67152344 6.80214844 14.47976563 7.05351562 15.3125 7.3125 C16.11300781 7.55613281 16.91351563 7.79976563 17.73828125 8.05078125 C20 9 20 9 23 12 C19.7 11.01 16.4 10.02 13 9 C12.67 9.66 12.34 10.32 12 11 C10.18104721 9.73841989 8.3700098 8.46542094 6.5625 7.1875 C5.04849609 6.12595703 5.04849609 6.12595703 3.50390625 5.04296875 C1 3 1 3 0 0 Z " fill="#A5A5A6" transform="translate(295,469)"/>
<path d="M0 0 C0.99 0.33 1.98 0.66 3 1 C2.34 1.66 1.68 2.32 1 3 C1.495 4.216875 1.99 5.43375 2.5 6.6875 C4.72288756 12.74700599 4.72288756 12.74700599 4 16 C2.35 17.32 0.7 18.64 -1 20 C-1.33 13.73 -1.66 7.46 -2 1 C-1.34 0.67 -0.68 0.34 0 0 Z " fill="#4474A6" transform="translate(241,268)"/>
<path d="M0 0 C0.66 0 1.32 0 2 0 C3.375 1.546875 3.375 1.546875 5 3.75 C7.88314711 7.56822185 10.86085994 11.27302733 13.9375 14.9375 C18.37292749 20.22876801 22.71331896 25.58776584 27 31 C26.67 31.66 26.34 32.32 26 33 C20.70124391 27.26094612 15.80324099 21.28147844 11.02294922 15.11181641 C7.88403608 11.07544093 4.62518808 7.20277873 1.14453125 3.453125 C0 2 0 2 0 0 Z " fill="#378FD0" transform="translate(331,260)"/>
<path d="M0 0 C0 0.33 0 0.66 0 1 C-1.7015625 1.2165625 -1.7015625 1.2165625 -3.4375 1.4375 C-6.80777201 1.61171478 -6.80777201 1.61171478 -8 3 C-10.1183133 3.37347673 -12.24516595 3.69909629 -14.375 4 C-17.73946018 4.47744002 -20.77494297 4.92498099 -24 6 C-26.00875442 5.72428861 -28.01178687 5.39764263 -30 5 C-21.07409856 -0.03175816 -10.00037128 -0.49452385 0 0 Z " fill="#81B9E9" transform="translate(280,112)"/>
<path d="M0 0 C0.66 0.33 1.32 0.66 2 1 C1.60208252 1.38744385 1.20416504 1.7748877 0.79418945 2.17407227 C-1.03850867 3.96471283 -2.86299549 5.76351304 -4.6875 7.5625 C-5.31333984 8.17158203 -5.93917969 8.78066406 -6.58398438 9.40820312 C-10.56568892 13.34821443 -13.87111525 17.35154216 -17 22 C-17 16.43119065 -12.43269042 12.14853884 -9 8 C-6.12625974 5.1661113 -3.13872871 2.53568592 0 0 Z " fill="#4EA8EA" transform="translate(227,163)"/>
<path d="M0 0 C5.52706913 0.72724594 10.69960141 2.33445973 16 4 C16 4.66 16 5.32 16 6 C16.804375 6.28875 17.60875 6.5775 18.4375 6.875 C21 8 21 8 22 10 C17.81403179 9.47675397 14.62593069 7.90941217 10.96484375 5.9375 C8.98844302 4.99448574 7.13617747 4.45673282 5 4 C5 3.34 5 2.68 5 2 C3.35 1.67 1.7 1.34 0 1 C0 0.67 0 0.34 0 0 Z " fill="#9E9E9E" transform="translate(318,481)"/>
<path d="M0 0 C-4.33664919 3.11696661 -7.80408388 3.55966813 -13 4 C-13 3.67 -13 3.34 -13 3 C-18.28 2.67 -23.56 2.34 -29 2 C-29 1.67 -29 1.34 -29 1 C-28.34926514 0.97494385 -27.69853027 0.9498877 -27.02807617 0.92407227 C-24.08101954 0.80806298 -21.1342787 0.68535885 -18.1875 0.5625 C-17.16333984 0.52318359 -16.13917969 0.48386719 -15.08398438 0.44335938 C-14.10107422 0.40146484 -13.11816406 0.35957031 -12.10546875 0.31640625 C-11.19949951 0.27974854 -10.29353027 0.24309082 -9.36010742 0.20532227 C-1.53263251 -0.47564457 -1.53263251 -0.47564457 0 0 Z " fill="#90B9E0" transform="translate(364,441)"/>
<path d="M0 0 C-0.72445312 0.38671875 -1.44890625 0.7734375 -2.1953125 1.171875 C-7.29177543 3.9171697 -12.26213387 6.67068867 -17 10 C-15.52001554 5.78773653 -14.14170259 3.10823214 -10.09765625 1.015625 C-9.09025391 0.63664063 -9.09025391 0.63664063 -8.0625 0.25 C-7.39347656 -0.01296875 -6.72445312 -0.2759375 -6.03515625 -0.546875 C-3.68352509 -1.07046274 -2.26382477 -0.74954377 0 0 Z " fill="#678EB6" transform="translate(256,153)"/>
<path d="M0 0 C3.18772993 2.12515329 4.24920753 3.66515721 6 7 C6 7.66 6 8.32 6 9 C6.66 9 7.32 9 8 9 C8.33 9.99 8.66 10.98 9 12 C9.66 12.33 10.32 12.66 11 13 C11.72693904 14.97888961 12.39816251 16.97954558 13 19 C9.338554 15.53092419 6.48164242 12.04844095 3.6875 7.8125 C2.99011719 6.76707031 2.29273438 5.72164063 1.57421875 4.64453125 C0 2 0 2 0 0 Z " fill="#3790D1" transform="translate(225,372)"/>
<path d="M0 0 C3.4375 0.8125 3.4375 0.8125 7 2 C7.33 2.99 7.66 3.98 8 5 C8.66 5.33 9.32 5.66 10 6 C9.67 7.32 9.34 8.64 9 10 C5.73991357 6.83047153 2.77762123 3.60062011 0 0 Z " fill="#C5C5C5" transform="translate(348,484)"/>
<path d="M0 0 C0 1.65 0 3.3 0 5 C-3.32534757 6.10844919 -5.62182575 5.84454356 -9 5 C-8.67 4.01 -8.34 3.02 -8 2 C-5.10441559 0.5522078 -3.25811062 0 0 0 Z " fill="#074277" transform="translate(240,270)"/>
<path d="M0 0 C10.55808656 1.92710706 10.55808656 1.92710706 15 4 C14.34 4.66 13.68 5.32 13 6 C9.375 5.625 9.375 5.625 6 5 C5.67 4.01 5.34 3.02 5 2 C4.01 2.33 3.02 2.66 2 3 C1.34 2.01 0.68 1.02 0 0 Z " fill="#47AAEE" transform="translate(290,117)"/>
<path d="M0 0 C3.91211733 1.15585285 6.8745041 2.35534962 10 5 C9.01 5 8.02 5 7 5 C6.67 5.66 6.34 6.32 6 7 C2.535 5.02 2.535 5.02 -1 3 C-0.67 2.01 -0.34 1.02 0 0 Z " fill="#979DA2" transform="translate(285,464)"/>
<path d="M0 0 C1.46366342 0.39753821 2.9208935 0.81881384 4.375 1.25 C5.18710937 1.48203125 5.99921875 1.7140625 6.8359375 1.953125 C9.45785454 3.2214892 9.99382318 4.32423308 11 7 C6.4923533 6.46968862 3.58045212 4.74778884 0 2 C0 1.34 0 0.68 0 0 Z " fill="#C4C4C4" transform="translate(295,474)"/>
<path d="M0 0 C3.7910119 1.44950455 7.3874638 3.15172566 11 5 C9.4375 6.125 9.4375 6.125 7 7 C3.25 6.125 3.25 6.125 0 5 C0.66 4.67 1.32 4.34 2 4 C1.34 2.68 0.68 1.36 0 0 Z " fill="#ACACAC" transform="translate(274,459)"/>
<path d="M0 0 C4.13347071 0.47239665 7.35761877 2.05174957 11 4 C11 4.66 11 5.32 11 6 C11.99 6.33 12.98 6.66 14 7 C13.01 7.495 13.01 7.495 12 8 C9.72265625 7.07421875 9.72265625 7.07421875 7.0625 5.6875 C6.18722656 5.23761719 5.31195313 4.78773437 4.41015625 4.32421875 C2 3 2 3 -1 1 C-0.67 0.67 -0.34 0.34 0 0 Z " fill="#48ABF0" transform="translate(305,122)"/>
<path d="M0 0 C3.12607441 0.08067001 6.25016751 0.1935229 9.375 0.3125 C10.26445312 0.33505859 11.15390625 0.35761719 12.0703125 0.38085938 C12.92109375 0.41630859 13.771875 0.45175781 14.6484375 0.48828125 C15.43395996 0.51446533 16.21948242 0.54064941 17.02880859 0.56762695 C19 1 19 1 21 4 C18.69 4.33 16.38 4.66 14 5 C14.33 4.01 14.66 3.02 15 2 C10.38 2 5.76 2 1 2 C0.67 1.34 0.34 0.68 0 0 Z " fill="#67A9E3" transform="translate(333,442)"/>
<path d="M0 0 C1.12894876 0.93274109 2.25300876 1.87140122 3.375 2.8125 C4.00148437 3.33457031 4.62796875 3.85664063 5.2734375 4.39453125 C7 6 7 6 9 9 C5 7 1 5 -3 3 C-2.01 2.67 -1.02 2.34 0 2 C0 1.34 0 0.68 0 0 Z " fill="#DADBDC" transform="translate(244,431)"/>
<path d="M0 0 C5.1588796 2.79725916 10.17342499 5.658525 15 9 C14.01 9.495 14.01 9.495 13 10 C11.23793667 9.02107593 9.47823584 8.03614487 7.75390625 6.9921875 C5.86901328 5.92590061 4.13874229 5.34219877 2 5 C2 4.01 2 3.02 2 2 C1.34 2 0.68 2 0 2 C0 1.34 0 0.68 0 0 Z " fill="#878C91" transform="translate(270,454)"/>
<path d="M0 0 C0.33 0 0.66 0 1 0 C1 3.63 1 7.26 1 11 C-3.875 6.25 -3.875 6.25 -5 4 C-3.35 4 -1.7 4 0 4 C0 2.68 0 1.36 0 0 Z " fill="#176BA7" transform="translate(239,278)"/>
<path d="M0 0 C1.72108867 1.56462606 2.91783125 2.83018459 3.9375 4.9375 C4.95595038 7.17183319 4.95595038 7.17183319 7.125 9.125 C9 11 9 11 9 13 C8.01 13 7.02 13 6 13 C4.99491199 11.21118264 3.99607264 9.41885304 3 7.625 C2.1646875 6.12839844 2.1646875 6.12839844 1.3125 4.6015625 C0 2 0 2 0 0 Z " fill="#3497D7" transform="translate(402,214)"/>
<path d="M0 0 C5.36757261 0.46272178 9.30500109 1.13719579 14 4 C14.33 4.66 14.66 5.32 15 6 C4.44191344 2.92482916 4.44191344 2.92482916 0 1 C0 0.67 0 0.34 0 0 Z " fill="#888889" transform="translate(317,479)"/>
<path d="M0 0 C3 1 3 1 4 2.8125 C4.33 3.534375 4.66 4.25625 5 5 C5.97581759 6.35113205 6.97029741 7.68946944 8 9 C7.67 9.66 7.34 10.32 7 11 C4.36 8.03 1.72 5.06 -1 2 C-0.67 1.34 -0.34 0.68 0 0 Z " fill="#2C88C9" transform="translate(240,288)"/>
<path d="M0 0 C2.31 1.98 4.62 3.96 7 6 C2.82412255 7.39195915 0.86525224 5.82323219 -3 4 C-2.01 2.68 -1.02 1.36 0 0 Z " fill="#C2C3C2" transform="translate(283,465)"/>
<path d="M0 0 C0.99 0.33 1.98 0.66 3 1 C3 1.66 3 2.32 3 3 C0.09451118 5.04169485 -1.40142046 6 -5 6 C-3.35 4.02 -1.7 2.04 0 0 Z " fill="#4AACEC" transform="translate(203,145)"/>
<path d="M0 0 C5.75 1.75 5.75 1.75 8 4 C6.35 4.33 4.7 4.66 3 5 C2.01 3.35 1.02 1.7 0 0 Z " fill="#90959A" transform="translate(295,469)"/>
<path d="M0 0 C0.99 0.33 1.98 0.66 3 1 C1.35 2.65 -0.3 4.3 -2 6 C-2.66 5.67 -3.32 5.34 -4 5 C-3 2 -3 2 0 0 Z " fill="#4FACED" transform="translate(375,433)"/>
<path d="M0 0 C3.375 0.3125 3.375 0.3125 7 1 C7.66 1.99 8.32 2.98 9 4 C5.17902761 3.46930939 2.93828597 2.50298434 0 0 Z " fill="#A8A8A8" transform="translate(331,487)"/>
<path d="M0 0 C-0.33 0.66 -0.66 1.32 -1 2 C-3.06640625 2.4140625 -3.06640625 2.4140625 -5.5625 2.625 C-6.38878906 2.69976562 -7.21507812 2.77453125 -8.06640625 2.8515625 C-9.02353516 2.92503906 -9.02353516 2.92503906 -10 3 C-10.33 2.34 -10.66 1.68 -11 1 C-7.27569643 0.30710631 -3.78916254 -0.11144596 0 0 Z " fill="#C0CCD4" transform="translate(360,479)"/>
<path d="M0 0 C0 1.32 0 2.64 0 4 C-1.65 3.67 -3.3 3.34 -5 3 C-5 2.34 -5 1.68 -5 1 C-3 0 -3 0 0 0 Z " fill="#05386D" transform="translate(240,270)"/>
</svg>
